<?xml version="1.0" encoding="utf-8"?>
<!-- Generator: Adobe Illustrator 19.2.1, SVG Export Plug-In . SVG Version: 6.00 Build 0)  -->
<svg version="1.1" id="Layer_1" xmlns="http://www.w3.org/2000/svg" xmlns:xlink="http://www.w3.org/1999/xlink" x="0px" y="0px"
	 viewBox="0 0 422 652.2" style="enable-background:new 0 0 422 652.2;" xml:space="preserve">
<style type="text/css">
	.st0{fill:#ED1C24;}
	.st1{stroke:#ED1C24;stroke-width:35;stroke-miterlimit:10;}
	.st2{fill:#FFFFFF;}
	.st3{font-family:'ColdNightforAlligators';}
	.st4{font-size:112.5949px;}
</style>
<circle class="st0" cx="214.9" cy="381.6" r="53.4"/>
<path class="st1" d="M212.4,477.5c0,0,61.5,2,124.1-35s39.7-4,39.7-4s-16.2,28.9-91.6,88.8s-150.1,0-150.1,0S75.3,489,53.7,452.6
	s4-38.4,21.6-20.9C92.8,449.2,147.3,477.5,212.4,477.5z"/>
<polygon class="st2" points="60.1,449.4 57.9,446.9 57.1,438.9 60.9,435.9 61.7,447.2 "/>
<polygon class="st2" points="77.7,464.2 74.6,460.2 73.3,447.2 78.8,442.6 80.1,460.7 "/>
<polygon class="st2" points="69.6,454.5 72.2,458.4 71.9,470.2 66,473.7 66.8,457.3 "/>
<polygon class="st2" points="89.1,487.8 85.8,480 83.6,455 88.8,446.5 91.3,481.3 "/>
<polygon class="st2" points="106.2,469.5 107.3,476.5 108,499.4 99.1,499.4 102.4,488 "/>
<polyline class="st2" points="157.6,426.9 157.2,438.8 157.8,457.6 "/>
<polygon class="st2" points="126.2,504.6 122.5,496.2 113.2,467.5 121.7,464.7 122.9,480.2 "/>
<polygon class="st2" points="135.3,512.8 136.4,503.7 136.4,476.8 148.2,477 145.5,493.2 "/>
<polygon class="st2" points="152.7,485.5 153.5,503.4 148.7,525.8 140,523.7 145.9,513.4 "/>
<polygon class="st2" points="176.5,489.6 182.1,517.6 190.6,544.3 174.5,538.3 173.5,510.3 "/>
<polygon class="st2" points="163.3,518.3 164.4,521.7 165.5,532.7 157.4,532.5 160.1,527.1 "/>
<polygon class="st2" points="160,511.9 159.2,506.8 162.4,484.7 170.5,484.6 166.7,507.6 "/>
<polygon class="st2" points="197.7,516.8 193.2,508.8 180.9,481.2 191.8,480.3 193.3,493.9 "/>
<polygon class="st2" points="203.8,504.6 206.9,513.2 214.8,542.4 203.7,544.3 204.5,528 "/>
<polygon class="st2" points="218.5,528 219.8,531.1 222.9,541.7 217.3,542.7 218.2,536.6 "/>
<polygon class="st2" points="217.3,524 210.4,508.9 203.5,488.4 214.5,487.4 215.9,501 "/>
<polygon class="st2" points="225.1,508.7 220.6,499 216.1,485.6 223.2,485 224.2,493.8 "/>
<polygon class="st2" points="232.2,494.8 236,516.5 237.7,535.9 232.1,538.1 229.5,518.3 "/>
<polygon class="st2" points="244.6,524.6 248.9,504 250.8,485.4 244.6,482.8 241.7,501.7 "/>
<polygon class="st2" points="259,492.9 254.2,519.7 256,531.5 266.2,527.2 266.2,507 "/>
<polygon class="st2" points="272.3,513.9 272,518.2 273.1,523.6 279.9,522.6 277.3,519 "/>
<polygon class="st2" points="281.7,519.3 274.9,499.4 270.8,481.2 276.6,477.8 281.8,496.2 "/>
<polygon class="st2" points="292.7,501.6 289.1,488.6 287.8,476.4 293.8,473.2 296.1,485.4 "/>
<polygon class="st2" points="307.2,475.5 309.1,488.9 308.9,501.2 302.5,503.6 301.7,491.2 "/>
<polygon class="st2" points="312.8,466.9 314.5,478.8 317.7,485.5 324.5,494.8 330,482.4 "/>
<polygon class="st2" points="327.7,475.4 329.2,468.3 329.1,464.2 328,458.5 323.5,465.6 "/>
<polygon class="st2" points="337.3,468.1 337,460.6 335.9,456.5 333.3,451 330.7,459.3 "/>
<polygon class="st2" points="338.1,471.2 337,474.6 336.9,476.7 337.3,479.9 340.2,477 "/>
<polygon class="st2" points="349.2,450.1 349.7,446.5 349.4,444.4 348.4,441.4 346,444.8 "/>
<polygon class="st2" points="345.3,452.5 349.8,457 351.6,460.3 353.3,465.5 346.4,462.9 "/>
<polygon class="st2" points="353.7,444.8 356.2,448.3 358.7,452.5 358.4,460.5 355.1,457.4 "/>
<text transform="matrix(1 0 0 1 45.5254 179.5442)" class="st3 st4">STEPHEN</text>
<text transform="matrix(1 0 0 1 126.1802 309.2883)" class="st3 st4">KING</text>
</svg>
